# xmcd
#
# Track frame offsets:
#	150
#	20967
#	42617
#	58975
#	79750
#	100162
#	120512
#	141355
#	160587
#
# Disc length: 2403 seconds
#
# Revision: 1
# Processed by: cddbd v1.5.1PL0 Copyright (c) Steve Scherf et al.
# Submitted via: CDex 1.50Beta5
#
DISCID=7c096109
DTITLE=石井明美 - Mona Lisa
DYEAR=1986
DGENRE=Pop
TTITLE0=O LA LA
TTITLE1=インスピレーションの夜
TTITLE2=CHA-CHA-CHA
TTITLE3=YOU MAKE ME HAPPY
TTITLE4=死んでもいい
TTITLE5=ジュテーム
TTITLE6=恋は不滅
TTITLE7=流されて
TTITLE8=愛は嵐
EXTD=
EXTT0=
EXTT1=
EXTT2=
EXTT3=
EXTT4=
EXTT5=
EXTT6=
EXTT7=
EXTT8=
PLAYORDER=
